<svg xmlns="http://www.w3.org/2000/svg" viewBox="0 0 256 416">
  <path d="M201.816 230.216c-16.186 0-30.697 7.171-40.634 18.461l-25.463-18.026c2.703-7.442 4.255-15.433 4.255-23.797 0-8.219-1.498-16.076-4.112-23.408l25.406-17.835c9.936 11.233 24.409 18.365 40.548 18.365 29.875 0 54.184-24.305 54.184-54.184 0-29.879-24.309-54.184-54.184-54.184-29.875 0-54.184 24.305-54.184 54.184 0 5.348.808 10.505 2.258 15.389l-25.423 17.844c-12.62-13.175-30.304-21.394-49.843-21.394-38.513 0-69.819 31.308-69.819 69.826 0 38.518 31.306 69.826 69.819 69.826 19.539 0 37.223-8.219 49.843-21.394l25.423 17.844c-1.45 4.884-2.258 10.042-2.258 15.389 0 29.879 24.309 54.184 54.184 54.184 29.875 0 54.184-24.305 54.184-54.184 0-29.879-24.309-54.184-54.184-54.184z" fill="currentColor"/>
</svg>
